<?xml version="1.0" encoding="UTF-8"?>
<svg width="187px" height="21px" viewBox="0 0 187 21" version="1.1" xmlns="http://www.w3.org/2000/svg" xmlns:xlink="http://www.w3.org/1999/xlink">
    <title>en-kernelgen备份</title>
    <g id="页面-1" stroke="none" stroke-width="1" fill="none" fill-rule="evenodd">
        <g id="en-kernelgen备份" transform="translate(0.4205, 0.2149)">
            <g id="KernelGen备份" transform="translate(86.0189, 0)" fill="#FFFFFF" fill-rule="nonzero">
                <polygon id="路径" points="9.96064782 0.29924693 1.75273202 8.22929058 1.75273202 0.29924693 0 0.29924693 0 15.5608404 1.75273202 15.5608404 1.75273202 10.2171452 4.12533268 7.97279321 10.8583886 15.5608404 13.2096145 15.5608404 5.34369518 6.83992983 12.2477494 0.29924693"></polygon>
                <path d="M19.0876792,4.2108318 C17.4845706,4.2108318 16.2234586,4.78795088 15.2829682,5.94218904 C14.3424779,7.03230286 13.8936075,8.40028883 13.8936075,10.0247722 C13.8936075,11.8202537 14.3638526,13.2309893 15.3470926,14.2997283 C16.2875829,15.3257178 17.5700698,15.8600873 19.1518035,15.8600873 C20.5839138,15.8600873 21.7595268,15.4325917 22.6786424,14.62035 C23.4267597,13.936357 23.9183796,13.0813658 24.174877,12.0126268 L22.4648945,12.0126268 C22.1870224,12.7821189 21.8236511,13.359238 21.3534059,13.743984 C20.7976616,14.1928544 20.0495443,14.427977 19.1518035,14.427977 C18.1044393,14.427977 17.2708228,14.0859805 16.672329,13.4019875 C16.0738351,12.7179945 15.7532134,11.7561294 15.6677143,10.5163921 L24.3886248,10.5163921 C24.3458752,8.59266185 23.9183796,7.07505242 23.106138,6.00631338 C22.2083972,4.80932566 20.861786,4.2108318 19.0876792,4.2108318 Z M19.1304288,5.64294211 C21.2251573,5.64294211 22.4007702,6.81855505 22.614518,9.19115571 L15.7104638,9.19115571 C15.8173377,8.1010419 16.1593342,7.24605067 16.7578281,6.60480724 C17.3563219,5.96356382 18.1471888,5.64294211 19.1304288,5.64294211 Z" id="形状"></path>
                <path d="M31.2499294,4.2108318 C30.4804373,4.2108318 29.8178191,4.44595439 29.2407,4.91619957 C28.7704549,5.27957084 28.3857088,5.79256558 28.0864619,6.433809 L28.0864619,4.51007873 L26.3978542,4.51007873 L26.3978542,15.5608404 L28.0864619,15.5608404 L28.0864619,9.70415045 C28.0864619,8.67816097 28.364334,7.80179497 28.9628279,7.07505242 C29.539947,6.30556031 30.2666895,5.94218904 31.1216807,5.94218904 C31.6560503,5.94218904 32.2117946,6.00631338 32.7675389,6.17731163 L32.7675389,4.46732917 C32.361418,4.29633093 31.8484233,4.2108318 31.2499294,4.2108318 Z" id="路径"></path>
                <path d="M39.3723461,4.2108318 C38.6456036,4.2108318 37.9829854,4.38183005 37.3844915,4.72382654 C36.7859976,5.04444825 36.2943777,5.51469343 35.9096316,6.13456207 L35.9096316,4.51007873 L34.1996492,4.51007873 L34.1996492,15.5608404 L35.9096316,15.5608404 L35.9096316,8.89190878 C35.973756,7.88729409 36.2943777,7.0964272 36.8928715,6.49793334 C37.4486158,5.94218904 38.111234,5.66431689 38.8807261,5.66431689 C40.8044564,5.66431689 41.7876963,6.73305593 41.7876963,8.89190878 L41.7876963,15.5608404 L43.4976788,15.5608404 L43.4976788,8.7636601 C43.4976788,5.72844123 42.108318,4.2108318 39.3723461,4.2108318 Z" id="路径"></path>
                <path d="M50.7009799,4.2108318 C49.0978713,4.2108318 47.8367593,4.78795088 46.8962689,5.94218904 C45.9557786,7.03230286 45.5069082,8.40028883 45.5069082,10.0247722 C45.5069082,11.8202537 45.9771533,13.2309893 46.9603933,14.2997283 C47.9008836,15.3257178 49.1833705,15.8600873 50.7651042,15.8600873 C52.1972145,15.8600873 53.3728275,15.4325917 54.291943,14.62035 C55.0400604,13.936357 55.5316803,13.0813658 55.7881777,12.0126268 L54.0781952,12.0126268 C53.8003231,12.7821189 53.4369518,13.359238 52.9667066,13.743984 C52.4109623,14.1928544 51.662845,14.427977 50.7651042,14.427977 C49.71774,14.427977 48.8841235,14.0859805 48.2856297,13.4019875 C47.6871358,12.7179945 47.3665141,11.7561294 47.281015,10.5163921 L56.0019255,10.5163921 C55.9591759,8.59266185 55.5316803,7.07505242 54.7194387,6.00631338 C53.8216979,4.80932566 52.4750867,4.2108318 50.7009799,4.2108318 Z M50.7437294,5.64294211 C52.838458,5.64294211 54.0140709,6.81855505 54.2278187,9.19115571 L47.3237645,9.19115571 C47.4306384,8.1010419 47.7726349,7.24605067 48.3711288,6.60480724 C48.9696226,5.96356382 49.7604895,5.64294211 50.7437294,5.64294211 Z" id="形状"></path>
                <polygon id="路径" points="58.3531514 0 58.3531514 15.5608404 60.0417591 15.5608404 60.0417591 0"></polygon>
                <path d="M69.7672843,0 C67.5229323,0 65.7488255,0.790866887 64.4449639,2.39397544 C63.2052266,3.86883531 62.6067327,5.72844123 62.6067327,7.99416799 C62.6067327,10.2598947 63.2266014,12.1195007 64.4663387,13.551611 C65.7915751,15.0905952 67.6725558,15.8600873 70.087906,15.8600873 C71.3490181,15.8600873 72.524631,15.6890891 73.6361196,15.3470926 C74.6834839,15.0050961 75.5812246,14.5562257 76.3079672,13.9577318 L76.3079672,7.71629584 L69.7886591,7.71629584 L69.7886591,9.23390527 L74.57661,9.23390527 L74.57661,13.1241154 C74.0422404,13.4661119 73.400997,13.7653588 72.6528797,13.9791066 C71.8833876,14.1928544 71.0925207,14.3211031 70.2589042,14.3211031 C68.2710496,14.3211031 66.774815,13.7226092 65.7702003,12.5469963 C64.8297099,11.4355077 64.3594648,9.91789826 64.3594648,7.99416799 C64.3594648,6.02768816 64.8297099,4.46732917 65.8129499,3.31309101 C66.7961898,2.13747807 68.1000514,1.56035899 69.7672843,1.56035899 C71.1138955,1.56035899 72.2040093,1.8809807 73.0376257,2.54359891 C73.8284926,3.16346755 74.3414874,4.03983356 74.57661,5.19407172 L76.329342,5.19407172 C76.0514698,3.52683882 75.3888516,2.26572676 74.3201126,1.38936075 C73.1872492,0.448870395 71.6696398,0 69.7672843,0 Z" id="路径"></path>
                <path d="M83.5753926,4.2108318 C81.9722841,4.2108318 80.711172,4.78795088 79.7706817,5.94218904 C78.8301913,7.03230286 78.3813209,8.40028883 78.3813209,10.0247722 C78.3813209,11.8202537 78.8515661,13.2309893 79.834806,14.2997283 C80.7752964,15.3257178 82.0577832,15.8600873 83.639517,15.8600873 C85.0716273,15.8600873 86.2472402,15.4325917 87.1663558,14.62035 C87.9144731,13.936357 88.4060931,13.0813658 88.6625905,12.0126268 L86.952608,12.0126268 C86.6747358,12.7821189 86.3113646,13.359238 85.8411194,13.743984 C85.2853751,14.1928544 84.5372578,14.427977 83.639517,14.427977 C82.5921527,14.427977 81.7585363,14.0859805 81.1600424,13.4019875 C80.5615486,12.7179945 80.2409268,11.7561294 80.1554277,10.5163921 L88.8763383,10.5163921 C88.8335887,8.59266185 88.4060931,7.07505242 87.5938514,6.00631338 C86.6961106,4.80932566 85.3494994,4.2108318 83.5753926,4.2108318 Z M83.6181422,5.64294211 C85.7128707,5.64294211 86.8884837,6.81855505 87.1022315,9.19115571 L80.1981773,9.19115571 C80.3050512,8.1010419 80.6470477,7.24605067 81.2455415,6.60480724 C81.8440354,5.96356382 82.6349023,5.64294211 83.6181422,5.64294211 Z" id="形状"></path>
                <path d="M96.0582646,4.2108318 C95.331522,4.2108318 94.6689038,4.38183005 94.07041,4.72382654 C93.4719161,5.04444825 92.9802962,5.51469343 92.5955501,6.13456207 L92.5955501,4.51007873 L90.8855676,4.51007873 L90.8855676,15.5608404 L92.5955501,15.5608404 L92.5955501,8.89190878 C92.6596744,7.88729409 92.9802962,7.0964272 93.57879,6.49793334 C94.1345343,5.94218904 94.7971525,5.66431689 95.5666446,5.66431689 C97.4903749,5.66431689 98.4736148,6.73305593 98.4736148,8.89190878 L98.4736148,15.5608404 L100.183597,15.5608404 L100.183597,8.7636601 C100.183597,5.72844123 98.7942365,4.2108318 96.0582646,4.2108318 Z" id="路径"></path>
            </g>
            <line x1="74.9800132" y1="2.1026451" x2="74.9800132" y2="13.9775233" id="直线备份-40" stroke="#FFFFFF" stroke-linecap="square"></line>
            <g id="黑色备份" transform="translate(0, 0.8145)" fill="#FFFFFF" fill-rule="nonzero">
                <g id="_编组-14备份-2">
                    <g id="_编组-7">
                        <g id="_路径备份-3">
                            <polygon id="路径" points="0 2.47164634 2.94987367 2.47164634 9.7126845 2.47164634 9.7126845 0 0 0"></polygon>
                        </g>
                        <g id="_路径备份-2" transform="translate(0, 5.1204)">
                            <path d="M0,9.38581531 L2.94826348,9.38581531 L2.94826348,3.75980078 C2.94826348,3.04809545 3.52471259,2.47164634 4.23641792,2.47164634 L9.7126845,2.47164634 L9.7126845,0 L2.94826348,0 C1.3203583,0 0,1.3203583 0,2.94826348 L0,9.38581531 L0,9.38581531 Z" id="路径"></path>
                        </g>
                    </g>
                    <g id="_路径备份-5" transform="translate(11.3229, 0)">
                        <polygon id="路径" points="2.87741499 0 0 0 0 14.4917375 2.87741499 14.4917375"></polygon>
                    </g>
                    <g id="_编组-6" transform="translate(39.1583, 0)">
                        <g id="_椭圆形">
                            <path d="M7.24586874,14.4917375 C3.25097977,14.4917375 0,11.2407577 0,7.24586874 C0,3.25097977 3.25097977,0 7.24586874,0 C11.2407577,0 14.4917375,3.25097977 14.4917375,7.24586874 C14.4917375,11.2407577 11.2407577,14.4917375 7.24586874,14.4917375 Z M7.24586874,2.8983475 C4.84829128,2.8983475 2.8983475,4.84829128 2.8983475,7.24586874 C2.8983475,9.6434462 4.84829128,11.59339 7.24586874,11.59339 C9.6434462,11.59339 11.59339,9.6434462 11.59339,7.24586874 C11.59339,4.84829128 9.6434462,2.8983475 7.24586874,2.8983475 Z" id="形状"></path>
                        </g>
                        <g id="_椭圆形-2" transform="translate(4.8306, 4.8306)">
                            <circle id="椭圆形" cx="2.41528958" cy="2.41528958" r="2.41528958"></circle>
                        </g>
                    </g>
                    <g id="_编组-10" transform="translate(15.8105, 3.8645)">
                        <g id="_椭圆形-3">
                            <path d="M4.75006951,10.6272742 C2.13028541,10.6272742 0,8.24418843 0,5.31363708 C0,2.38308572 2.13028541,0 4.75006951,0 C7.3698536,0 9.50013901,2.38308572 9.50013901,5.31363708 C9.50013901,8.24418843 7.3698536,10.6272742 4.75006951,10.6272742 Z M4.75006951,2.8983475 C3.74691923,2.8983475 2.8983475,4.00455012 2.8983475,5.31363708 C2.8983475,6.62272403 3.74691923,7.72892666 4.75006951,7.72892666 C5.75321978,7.72892666 6.60179152,6.62272403 6.60179152,5.31363708 C6.60179152,4.00455012 5.75321978,2.8983475 4.75006951,2.8983475 Z" id="形状"></path>
                        </g>
                        <g id="_路径备份-6" transform="translate(7.4069, 0)">
                            <polygon id="路径" points="2.09325097 0 0 0 0 10.6272742 2.09325097 10.6272742"></polygon>
                        </g>
                    </g>
                    <g id="_编组-13" transform="translate(26.9208, 1.6102)">
                        <g id="_椭圆形-4" transform="translate(0, 2.2543)">
                            <path d="M5.31363708,10.6272742 C2.38308572,10.6272742 0,8.24418843 0,5.31363708 C0,2.38308572 2.38308572,0 5.31363708,0 C8.24418843,0 10.6272742,2.38308572 10.6272742,5.31363708 C10.6272742,8.24418843 8.24418843,10.6272742 5.31363708,10.6272742 Z M5.31363708,2.8983475 C3.98200742,2.8983475 2.8983475,3.98200742 2.8983475,5.31363708 C2.8983475,6.64526673 3.98200742,7.72892666 5.31363708,7.72892666 C6.64526673,7.72892666 7.72892666,6.64526673 7.72892666,5.31363708 C7.72892666,3.98200742 6.64526673,2.8983475 5.31363708,2.8983475 Z" id="形状"></path>
                        </g>
                        <g id="_椭圆形-5" transform="translate(7.4375, 0)">
                            <circle id="椭圆形" cx="1.44917375" cy="1.44917375" r="1.44917375"></circle>
                        </g>
                        <g id="_路径" transform="translate(0.6119, 13.5482)">
                            <path d="M4.78227337,4.02709283 C3.04970564,4.02709283 1.31874811,3.36852387 0,2.04977576 L2.04977576,0 C3.55691645,1.5071407 6.00763028,1.5071407 7.51477098,0 L9.56454674,2.04977576 C8.24579863,3.36852387 6.51484109,4.02709283 4.78227337,4.02709283 L4.78227337,4.02709283 Z" id="路径"></path>
                        </g>
                    </g>
                    <g id="_编组-8" transform="translate(54.6161, 0)">
                        <g id="_路径-2">
                            <path d="M4.26218101,8.5308028 C1.91129915,8.5308028 0,6.61789345 0,4.2654014 C0,1.91290935 1.91290935,0 4.26218101,0 L9.57581809,0 L9.57581809,2.57630889 L4.26218101,2.57630889 C3.33309962,2.57630889 2.57630889,3.33470981 2.57630889,4.2654014 C2.57630889,5.19609298 3.33309962,5.95449391 4.26218101,5.95449391 L4.26218101,8.5308028 Z" id="路径"></path>
                        </g>
                        <g id="_路径备份-4" transform="translate(1.2882, 5.9609)">
                            <path d="M5.31363708,8.5308028 L0,8.5308028 L0,5.95449391 L5.31363708,5.95449391 C6.24271847,5.95449391 6.9995092,5.19609298 6.9995092,4.2654014 C6.9995092,3.33470981 6.24271847,2.57630889 5.31363708,2.57630889 L2.8983475,2.57630889 L2.8983475,0 L5.31363708,0 C7.66451893,0 9.57581809,1.91290935 9.57581809,4.2654014 C9.57581809,6.61789345 7.66290874,8.5308028 5.31363708,8.5308028 Z" id="路径"></path>
                        </g>
                    </g>
                </g>
            </g>
        </g>
    </g>
</svg>