<?xml version="1.0" encoding="UTF-8"?>
<svg width="223px" height="20px" viewBox="0 0 223 20" version="1.1" xmlns="http://www.w3.org/2000/svg" xmlns:xlink="http://www.w3.org/1999/xlink">
    <title>ch-kernelgen</title>
    <g id="页面-1" stroke="none" stroke-width="1" fill="none" fill-rule="evenodd">
        <g id="ch-kernelgen">
            <g id="KernelGen备份" transform="translate(124.139, 0.2687)" fill="#245CC0" fill-rule="nonzero">
                <polygon id="路径" points="9.82684038 0.295226964 1.7291865 8.11874152 1.7291865 0.295226964 0 0.295226964 0 15.3518021 1.7291865 15.3518021 1.7291865 10.0798921 4.06991458 7.86568983 10.7125213 15.3518021 13.0321617 15.3518021 5.27191008 6.7480449 12.0832179 0.295226964"></polygon>
                <path d="M18.8312628,4.15426514 C17.2496898,4.15426514 16.005519,4.72363143 15.0776628,5.862364 C14.1498066,6.93783366 13.7069662,8.28744264 13.7069662,9.8901033 C13.7069662,11.6614651 14.1708943,13.0532493 15.1409257,14.1076314 C16.0687819,15.1198381 17.3340403,15.6470291 18.8945257,15.6470291 C20.3073976,15.6470291 21.4672178,15.2252763 22.3739864,14.423946 C23.1120538,13.7491415 23.5970695,12.9056359 23.8501212,11.8512539 L22.16311,11.8512539 C21.8889706,12.6104089 21.5304807,13.1797752 21.0665527,13.5593527 C20.518274,14.0021932 19.7802066,14.2341572 18.8945257,14.2341572 C17.8612313,14.2341572 17.0388134,13.896755 16.4483594,13.2219505 C15.8579055,12.547146 15.5415909,11.5982022 15.4572403,10.375119 L24.0609976,10.375119 C24.0188223,8.4772314 23.5970695,6.98000894 22.7957392,5.92562693 C21.9100583,4.74471907 20.5815369,4.15426514 18.8312628,4.15426514 Z M18.8734381,5.56713704 C20.9400268,5.56713704 22.099847,6.72695726 22.3107234,9.06768533 L15.4994156,9.06768533 C15.6048538,7.99221567 15.9422561,7.14871006 16.53271,6.51608085 C17.1231639,5.88345164 17.9034066,5.56713704 18.8734381,5.56713704 Z" id="形状"></path>
                <path d="M30.8301301,4.15426514 C30.0709751,4.15426514 29.4172582,4.38622918 28.8478919,4.85015727 C28.3839638,5.20864715 28.0043863,5.71475052 27.7091594,6.34737973 L27.7091594,4.4494921 L26.0432358,4.4494921 L26.0432358,15.3518021 L27.7091594,15.3518021 L27.7091594,9.5737887 C27.7091594,8.56158196 27.9832987,7.69698871 28.5737526,6.98000894 C29.1431189,6.22085389 29.8600987,5.862364 30.7036043,5.862364 C31.2307953,5.862364 31.7790739,5.92562693 32.3273526,6.09432805 L32.3273526,4.40731682 C31.9266874,4.2386157 31.4205841,4.15426514 30.8301301,4.15426514 Z" id="路径"></path>
                <path d="M38.8434334,4.15426514 C38.1264537,4.15426514 37.4727368,4.32296626 36.8822829,4.66036851 C36.291829,4.97668311 35.8068132,5.4406112 35.4272357,6.05215277 L35.4272357,4.4494921 L33.7402245,4.4494921 L33.7402245,15.3518021 L35.4272357,15.3518021 L35.4272357,8.77245837 C35.4904986,7.78133927 35.8068132,7.00109658 36.3972672,6.41064265 C36.9455458,5.862364 37.5992627,5.58822468 38.3584177,5.58822468 C40.2563053,5.58822468 41.2263368,6.6426067 41.2263368,8.77245837 L41.2263368,15.3518021 L42.913348,15.3518021 L42.913348,8.64593252 C42.913348,5.6514876 41.5426514,4.15426514 38.8434334,4.15426514 Z" id="路径"></path>
                <path d="M50.0198828,4.15426514 C48.4383098,4.15426514 47.194139,4.72363143 46.2662828,5.862364 C45.3384267,6.93783366 44.8955862,8.28744264 44.8955862,9.8901033 C44.8955862,11.6614651 45.3595143,13.0532493 46.3295457,14.1076314 C47.2574019,15.1198381 48.5226603,15.6470291 50.0831457,15.6470291 C51.4960176,15.6470291 52.6558378,15.2252763 53.5626064,14.423946 C54.3006738,13.7491415 54.7856895,12.9056359 55.0387412,11.8512539 L53.35173,11.8512539 C53.0775906,12.6104089 52.7191008,13.1797752 52.2551727,13.5593527 C51.706894,14.0021932 50.9688266,14.2341572 50.0831457,14.2341572 C49.0498513,14.2341572 48.2274334,13.896755 47.6369794,13.2219505 C47.0465255,12.547146 46.7302109,11.5982022 46.6458604,10.375119 L55.2496176,10.375119 C55.2074423,8.4772314 54.7856895,6.98000894 53.9843592,5.92562693 C53.0986783,4.74471907 51.7701569,4.15426514 50.0198828,4.15426514 Z M50.0620581,5.56713704 C52.1286468,5.56713704 53.288467,6.72695726 53.4993434,9.06768533 L46.6880356,9.06768533 C46.7934738,7.99221567 47.1308761,7.14871006 47.72133,6.51608085 C48.3117839,5.88345164 49.0920266,5.56713704 50.0620581,5.56713704 Z" id="形状"></path>
                <polygon id="路径" points="57.569258 0 57.569258 15.3518021 59.2351816 15.3518021 59.2351816 0"></polygon>
                <path d="M68.8300579,0 C66.6158557,0 64.8655816,0.780242691 63.5792355,2.36181571 C62.3561524,3.81686289 61.7656984,5.6514876 61.7656984,7.88677747 C61.7656984,10.1220673 62.37724,11.9566921 63.6003232,13.369564 C64.9077569,14.8878741 66.7634692,15.6470291 69.1463726,15.6470291 C70.3905433,15.6470291 71.5503635,15.478328 72.6469208,15.1409257 C73.6802152,14.8035235 74.5658961,14.360683 75.2828759,13.7702291 L75.2828759,7.61263815 L68.8511456,7.61263815 L68.8511456,9.10986061 L73.574777,9.10986061 L73.574777,12.9478111 C73.047586,13.2852134 72.4149568,13.5804404 71.6768894,13.7913168 C70.9177343,14.0021932 70.1374916,14.128719 69.3150737,14.128719 C67.3539231,14.128719 65.8777883,13.5382651 64.8866692,12.3784449 C63.958813,11.2818876 63.494885,9.7846651 63.494885,7.88677747 C63.494885,5.94671457 63.958813,4.40731682 64.9288445,3.26858425 C65.8988759,2.10876403 67.185222,1.53939774 68.8300579,1.53939774 C70.1585793,1.53939774 71.2340489,1.85571235 72.0564669,2.5094292 C72.8367096,3.12097076 73.342813,3.98556402 73.574777,5.12429659 L75.3039635,5.12429659 C75.0298242,3.47946065 74.3761073,2.23528987 73.3217253,1.37069662 C72.2040804,0.442840446 70.7068579,0 68.8300579,0 Z" id="路径"></path>
                <path d="M82.4526736,4.15426514 C80.8711006,4.15426514 79.6269298,4.72363143 78.6990736,5.862364 C77.7712174,6.93783366 77.328377,8.28744264 77.328377,9.8901033 C77.328377,11.6614651 77.7923051,13.0532493 78.7623365,14.1076314 C79.6901927,15.1198381 80.9554511,15.6470291 82.5159365,15.6470291 C83.9288084,15.6470291 85.0886286,15.2252763 85.9953972,14.423946 C86.7334646,13.7491415 87.2184803,12.9056359 87.471532,11.8512539 L85.7845208,11.8512539 C85.5103814,12.6104089 85.1518915,13.1797752 84.6879635,13.5593527 C84.1396848,14.0021932 83.4016174,14.2341572 82.5159365,14.2341572 C81.4826421,14.2341572 80.6602242,13.896755 80.0697702,13.2219505 C79.4793163,12.547146 79.1630017,11.5982022 79.0786511,10.375119 L87.6824084,10.375119 C87.6402331,8.4772314 87.2184803,6.98000894 86.41715,5.92562693 C85.5314691,4.74471907 84.2029477,4.15426514 82.4526736,4.15426514 Z M82.4948489,5.56713704 C84.5614376,5.56713704 85.7212578,6.72695726 85.9321342,9.06768533 L79.1208264,9.06768533 C79.2262646,7.99221567 79.5636669,7.14871006 80.1541208,6.51608085 C80.7445747,5.88345164 81.5248174,5.56713704 82.4948489,5.56713704 Z" id="形状"></path>
                <path d="M94.7678555,4.15426514 C94.0508758,4.15426514 93.3971589,4.32296626 92.806705,4.66036851 C92.216251,4.97668311 91.7312353,5.4406112 91.3516578,6.05215277 L91.3516578,4.4494921 L89.6646466,4.4494921 L89.6646466,15.3518021 L91.3516578,15.3518021 L91.3516578,8.77245837 C91.4149207,7.78133927 91.7312353,7.00109658 92.3216892,6.41064265 C92.8699679,5.862364 93.5236847,5.58822468 94.2828398,5.58822468 C96.1807274,5.58822468 97.1507589,6.6426067 97.1507589,8.77245837 L97.1507589,15.3518021 L98.8377701,15.3518021 L98.8377701,8.64593252 C98.8377701,5.6514876 97.4670735,4.15426514 94.7678555,4.15426514 Z" id="路径"></path>
            </g>
            <line x1="113.248439" y1="2.34307114" x2="113.248439" y2="14.0584269" id="直线备份-40" stroke="#245CC0" stroke-linecap="square"></line>
            <g id="黑色备份" fill="#245CC0">
                <g id="_编组-14备份-2" transform="translate(39.2757, 1.0723)" fill-rule="nonzero">
                    <g id="_编组-7">
                        <g id="_路径备份-3">
                            <polygon id="路径" points="0 2.43844321 2.91024623 2.43844321 9.5822081 2.43844321 9.5822081 0 0 0"></polygon>
                        </g>
                        <g id="_路径备份-2" transform="translate(0, 5.0516)">
                            <path d="M0,9.25972994 L2.90865766,9.25972994 L2.90865766,3.70929309 C2.90865766,3.00714853 3.47736299,2.43844321 4.17950755,2.43844321 L9.5822081,2.43844321 L9.5822081,0 L2.90865766,0 C1.30262113,0 0,1.30262113 0,2.90865766 L0,9.25972994 L0,9.25972994 Z" id="路径"></path>
                        </g>
                    </g>
                    <g id="_路径备份-5" transform="translate(11.1708, 0)">
                        <polygon id="路径" points="2.83876092 0 0 0 0 14.2970612 2.83876092 14.2970612"></polygon>
                    </g>
                    <g id="_编组-6" transform="translate(38.6322, 0)">
                        <g id="_椭圆形">
                            <path d="M7.14853058,14.2970612 C3.20730739,14.2970612 0,11.0897538 0,7.14853058 C0,3.20730739 3.20730739,0 7.14853058,0 C11.0897538,0 14.2970612,3.20730739 14.2970612,7.14853058 C14.2970612,11.0897538 11.0897538,14.2970612 7.14853058,14.2970612 Z M7.14853058,2.85941223 C4.78316124,2.85941223 2.85941223,4.78316124 2.85941223,7.14853058 C2.85941223,9.51389992 4.78316124,11.4376489 7.14853058,11.4376489 C9.51389992,11.4376489 11.4376489,9.51389992 11.4376489,7.14853058 C11.4376489,4.78316124 9.51389992,2.85941223 7.14853058,2.85941223 Z" id="形状"></path>
                        </g>
                        <g id="_椭圆形-2" transform="translate(4.7657, 4.7657)">
                            <circle id="椭圆形" cx="2.38284353" cy="2.38284353" r="2.38284353"></circle>
                        </g>
                    </g>
                    <g id="_编组-10" transform="translate(15.5981, 3.8125)">
                        <g id="_椭圆形-3">
                            <path d="M4.68625894,10.4845115 C2.10166799,10.4845115 0,8.13343924 0,5.24225576 C0,2.35107228 2.10166799,0 4.68625894,0 C7.27084988,0 9.37251787,2.35107228 9.37251787,5.24225576 C9.37251787,8.13343924 7.27084988,10.4845115 4.68625894,10.4845115 Z M4.68625894,2.85941223 C3.69658459,2.85941223 2.85941223,3.95075457 2.85941223,5.24225576 C2.85941223,6.53375695 3.69658459,7.62509929 4.68625894,7.62509929 C5.67593328,7.62509929 6.51310564,6.53375695 6.51310564,5.24225576 C6.51310564,3.95075457 5.67593328,2.85941223 4.68625894,2.85941223 Z" id="形状"></path>
                        </g>
                        <g id="_路径备份-6" transform="translate(7.3074, 0)">
                            <polygon id="路径" points="2.06513106 0 0 0 0 10.4845115 2.06513106 10.4845115"></polygon>
                        </g>
                    </g>
                    <g id="_编组-13" transform="translate(26.5592, 1.5886)">
                        <g id="_椭圆形-4" transform="translate(0, 2.224)">
                            <path d="M5.24225576,10.4845115 C2.35107228,10.4845115 0,8.13343924 0,5.24225576 C0,2.35107228 2.35107228,0 5.24225576,0 C8.13343924,0 10.4845115,2.35107228 10.4845115,5.24225576 C10.4845115,8.13343924 8.13343924,10.4845115 5.24225576,10.4845115 Z M5.24225576,2.85941223 C3.92851469,2.85941223 2.85941223,3.92851469 2.85941223,5.24225576 C2.85941223,6.55599682 3.92851469,7.62509929 5.24225576,7.62509929 C6.55599682,7.62509929 7.62509929,6.55599682 7.62509929,5.24225576 C7.62509929,3.92851469 6.55599682,2.85941223 5.24225576,2.85941223 Z" id="形状"></path>
                        </g>
                        <g id="_椭圆形-5" transform="translate(7.3376, 0)">
                            <circle id="椭圆形" cx="1.42970612" cy="1.42970612" r="1.42970612"></circle>
                        </g>
                        <g id="_路径" transform="translate(0.6037, 13.3662)">
                            <path d="M4.71803018,3.97299444 C3.00873709,3.97299444 1.30103257,3.32327244 0,2.02223987 L2.02223987,0 C3.50913423,1.48689436 5.92692613,1.48689436 7.41382049,0 L9.43606037,2.02223987 C8.1350278,3.32327244 6.42732327,3.97299444 4.71803018,3.97299444 L4.71803018,3.97299444 Z" id="路径"></path>
                        </g>
                    </g>
                    <g id="_编组-8" transform="translate(53.8824, 0)">
                        <g id="_路径-2">
                            <path d="M4.20492454,8.41620334 C1.88562351,8.41620334 0,6.52899126 0,4.20810167 C0,1.88721207 1.88721207,0 4.20492454,0 L9.4471803,0 L9.4471803,2.54169976 L4.20492454,2.54169976 C3.28832407,2.54169976 2.54169976,3.28991263 2.54169976,4.20810167 C2.54169976,5.12629071 3.28832407,5.87450357 4.20492454,5.87450357 L4.20492454,8.41620334 Z" id="路径"></path>
                        </g>
                        <g id="_路径备份-4" transform="translate(1.2708, 5.8809)">
                            <path d="M5.24225576,8.41620334 L0,8.41620334 L0,5.87450357 L5.24225576,5.87450357 C6.15885624,5.87450357 6.90548054,5.12629071 6.90548054,4.20810167 C6.90548054,3.28991263 6.15885624,2.54169976 5.24225576,2.54169976 L2.85941223,2.54169976 L2.85941223,0 L5.24225576,0 C7.56155679,0 9.4471803,1.88721207 9.4471803,4.20810167 C9.4471803,6.52899126 7.55996823,8.41620334 5.24225576,8.41620334 Z" id="路径"></path>
                        </g>
                    </g>
                </g>
                <g id="_编组-4备份" transform="translate(19.3011, 0)" fill-rule="nonzero">
                    <g id="_形状结合" transform="translate(0, 1.0723)">
                        <path d="M14.4463585,9.09134234 C14.9721726,9.09134234 15.3994959,9.51866561 15.3994959,10.0444797 L15.3994959,13.50278 C15.3994959,14.7307387 14.4034673,15.7267673 13.1755086,15.7267673 L3.16121157,15.7267673 C1.93325287,15.7267673 0.937224275,14.7307387 0.937224275,13.50278 L0.937224275,10.0444797 C0.937224275,9.51866561 1.36454755,9.09134234 1.89036169,9.09134234 L14.4463585,9.09134234 Z M13.4201472,13.6012708 L13.4201472,11.5822081 C13.4201472,11.5822081 13.4233244,11.5822081 13.4233244,11.5822081 L13.4233244,10.8864178 L2.91180728,10.8864178 C2.91180728,10.8864178 2.91180728,11.5822081 2.91180728,11.5822081 L2.91180728,11.5822081 C2.91180728,11.5822081 2.91180728,13.6012708 2.91180728,13.6012708 L13.4185587,13.6012708 L13.4201472,13.6012708 Z M5.39473023,2.0381255 L5.39473023,3.34392375 L7.17550863,3.34392375 C7.71403127,3.34392375 8.15088591,3.7807784 8.15088591,4.31930103 C8.15088591,4.85782367 7.71403127,5.29467832 7.17550863,5.29467832 L5.7759852,5.29467832 C5.9952068,5.53772836 6.35739902,6.04447975 7.62030609,6.28752979 C8.88321316,6.53216839 9.11196613,8.16203336 7.62030609,8.39396346 C6.00314961,8.29706116 5.2231655,7.6203336 4.50513532,6.9070691 L4.43047289,6.83240667 C4.40505589,6.80698967 4.37963889,6.78157268 4.35581045,6.75774424 C3.50116391,7.53613979 2.84032197,8.10166799 0.945167087,8.40349484 C-0.0603928811,8.53375695 -0.546492961,6.34312947 0.945167087,6.29706116 C2.43682713,6.25099285 2.79584223,5.55043685 3.03889227,5.29467832 L1.5186381,5.29467832 C0.980115459,5.29467832 0.543260812,4.85782367 0.543260812,4.31930103 C0.543260812,3.7807784 0.980115459,3.34392375 1.5186381,3.34392375 L3.42014723,3.34392375 L3.42014723,2.0381255 L5.39631879,2.0381255 L5.39473023,2.0381255 Z M14.93087,0 C15.4566842,0 15.8840074,0.427323272 15.8840074,0.953137411 L15.8840074,6.0841938 C15.8840074,7.22478157 14.9594641,8.14932486 13.8188764,8.14932486 L11.7442139,8.14932486 C10.6036262,8.14932486 9.67908289,7.22478157 9.67908289,6.0841938 L9.67908289,0.953137411 C9.67908289,0.427323272 10.1064062,0 10.6322203,0 L14.93087,0 Z M13.9078359,2.12390786 L11.6552545,2.12390786 C11.6552545,2.12390786 11.6552545,5.54884829 11.6552545,5.54884829 C11.6552545,5.81254964 11.8681218,6.025417 12.1318232,6.025417 L13.4312672,6.025417 C13.6949685,6.025417 13.9078359,5.81254964 13.9078359,5.54884829 L13.9078359,2.12390786 Z" id="形状"></path>
                    </g>
                    <g id="_路径-3" transform="translate(0.5147, 0)">
                        <path d="M6.47339158,3.09769658 L2.14932486,3.09769658 C0.964257347,3.09769658 0,2.11755361 0,0.913423352 C0,0.408260524 0.408260524,0 0.913423352,0 C1.41858618,0 1.8268467,0.408260524 1.8268467,0.913423352 C1.8268467,1.11040508 1.97140588,1.27084988 2.14932486,1.27084988 L6.47339158,1.27084988 C6.97855441,1.27084988 7.38681493,1.67911041 7.38681493,2.18427323 C7.38681493,2.68943606 6.97855441,3.09769658 6.47339158,3.09769658 Z" id="路径"></path>
                    </g>
                    <g id="_路径备份-8" transform="translate(3.8109, 12.5639)">
                        <path d="M0.794281176,1.58856235 L7.62509929,1.58856235 C8.06354249,1.58856235 8.41938046,1.23272438 8.41938046,0.794281176 C8.41938046,0.355837967 8.06354249,0 7.62509929,0 L0.794281176,0 C0.355837967,0 0,0.355837967 0,0.794281176 C0,1.23272438 0.355837967,1.58856235 0.794281176,1.58856235 Z" id="路径"></path>
                    </g>
                </g>
                <g id="_编组-5" transform="translate(0, 1.1501)">
                    <g id="_矩形" transform="translate(0, 4.9864)">
                        <path d="M5.98894201,0.131912625 C6.54017315,0.42579666 6.74986338,1.11046703 6.45756791,1.66328673 L2.1287355,9.82373153 C1.83644003,10.3749627 1.15335822,10.5846529 0.602127081,10.2923574 C0.602127081,10.2923574 0.602127081,10.2923574 0.600538519,10.2923574 C0.0493073827,9.99847339 -0.160382848,9.31380301 0.131912625,8.76098332 L4.46074503,0.600538519 C4.7530405,0.0493073827 5.43612232,-0.160382848 5.98735345,0.131912625 C5.98735345,0.131912625 5.98735345,0.131912625 5.98894201,0.131912625 Z" id="路径"></path>
                    </g>
                    <g id="_矩形备份-4" transform="translate(3.1645, 0)">
                        <path d="M10.3907863,1.13264496 C10.3907863,1.75853852 9.88403495,2.26528991 9.25814138,2.26528991 L1.13264496,2.26528991 C0.50675139,2.26528991 0,1.75853852 0,1.13264496 C0,0.50675139 0.50675139,0 1.13264496,0 L9.25814138,0 C9.88403495,0 10.3907863,0.50675139 10.3907863,1.13264496 Z" id="路径"></path>
                    </g>
                    <g id="_矩形备份-3" transform="translate(0.521, 0.0047)">
                        <path d="M4.19227799,0.131912625 C4.74350913,0.42579666 4.95319936,1.11046703 4.66090389,1.66328673 L2.1287355,6.4369166 C1.83644003,6.98814773 1.15335822,7.19783796 0.602127081,6.90554249 C0.602127081,6.90554249 0.602127081,6.90554249 0.600538519,6.90554249 C0.0493073827,6.61165845 -0.160382848,5.92698808 0.131912625,5.37416838 L2.66408101,0.600538519 C2.95637649,0.0493073827 3.6394583,-0.160382848 4.19068943,0.131912625 C4.19068943,0.131912625 4.19068943,0.131912625 4.19227799,0.131912625 L4.19227799,0.131912625 Z" id="路径"></path>
                    </g>
                    <g id="_矩形备份-6" transform="translate(11.3042, 0.0047)">
                        <path d="M0.600538519,0.131912625 C0.0493073827,0.42579666 -0.160382848,1.11046703 0.131912625,1.66328673 L2.66408101,6.4369166 C2.95637649,6.98814773 3.6394583,7.19783796 4.19068943,6.90554249 C4.19068943,6.90554249 4.19068943,6.90554249 4.19227799,6.90554249 C4.74350913,6.61165845 4.95319936,5.92698808 4.66090389,5.37416838 L2.1287355,0.600538519 C1.83644003,0.0493073827 1.15335822,-0.160382848 0.602127081,0.131912625 C0.602127081,0.131912625 0.602127081,0.131912625 0.600538519,0.131912625 Z" id="路径"></path>
                    </g>
                    <g id="_矩形备份-2" transform="translate(12.7816, 10.0651)">
                        <path d="M0.600538519,0.131912625 C0.0493073827,0.42579666 -0.160382848,1.11046703 0.131912625,1.66328673 L1.76654328,4.74350913 C2.05883876,5.29474027 2.74192057,5.5044305 3.2931517,5.21213502 L3.29474027,5.21213502 C3.8459714,4.91666243 4.05566163,4.23199205 3.76336616,3.68076092 L2.1287355,0.600538519 C1.83644003,0.0493073827 1.15335822,-0.160382848 0.602127081,0.131912625 L0.600538519,0.131912625 Z" id="路径"></path>
                    </g>
                    <g id="_路径-7" transform="translate(3.2183, 7.0883)" fill-rule="nonzero">
                        <path d="M4.7182674,8.21746932 C4.57847391,8.21746932 4.43709186,8.20317226 4.29729837,8.1761667 C3.7349473,8.06496733 3.25043578,7.74090061 2.93113475,7.26592047 L0.174979072,3.15154398 C-0.142733399,2.6781524 -0.0156484105,2.03637321 0.45774317,1.71866074 C0.931134751,1.40094827 1.57291394,1.52803326 1.89062641,2.00142484 L4.64678209,6.11580133 C4.64678209,6.11580133 4.66584484,6.14280689 4.69761609,6.14916114 C4.72938733,6.15551539 4.75003864,6.14121832 4.75639289,6.1380412 C4.76592427,6.13168695 4.77545564,6.12215558 4.78022133,6.1126242 L8.10031664,0.506587665 C8.39102355,0.0157218987 9.02485993,-0.146311461 9.51413713,0.144395449 C10.0050029,0.435102359 10.1670363,1.06893874 9.87632935,1.55821594 L6.55623404,7.16425248 C6.39420068,7.4374852 6.16862482,7.67576956 5.90492347,7.85368854 C5.54749694,8.09197289 5.13764786,8.21746932 4.71667883,8.21746932 L4.7182674,8.21746932 Z" id="路径"></path>
                    </g>
                </g>
            </g>
        </g>
    </g>
</svg>